<?xml version="1.0" encoding="utf-8"?>
<!-- Generator: Adobe Illustrator 23.0.2, SVG Export Plug-In . SVG Version: 6.00 Build 0)  -->
<svg version="1.1" xmlns="http://www.w3.org/2000/svg" xmlns:xlink="http://www.w3.org/1999/xlink" x="0px" y="0px"
	 viewBox="0 0 452.37 297.89" style="enable-background:new 0 0 452.37 297.89;" xml:space="preserve">
<style type="text/css">
	.st0{display:none;}
	.st1{display:inline;}
	.st2{display:none;opacity:0.1;}
	.st3{display:inline;fill:none;stroke:#000000;stroke-miterlimit:10;}
	.st4{display:inline;fill:none;stroke:#E6E6E6;stroke-miterlimit:10;}
	.st5{fill:none;stroke:#000000;stroke-miterlimit:10;}
	.st6{fill:#666666;stroke:#666666;stroke-width:0.2;stroke-miterlimit:10;}
	.st7{fill:#CCCCCC;}
	.st8{display:inline;fill:none;stroke:#CCCCCC;stroke-width:0.5;stroke-miterlimit:10;}
	.st9{fill:none;stroke:url(#SVGID_3_);stroke-width:3;stroke-linecap:round;stroke-linejoin:round;stroke-miterlimit:10;}
	.st10{fill:none;stroke:#FFDF00;stroke-linecap:round;stroke-linejoin:round;}
	.st11{fill:none;stroke:#FFDF00;stroke-linecap:round;stroke-linejoin:round;stroke-dasharray:7.3447,7.3447;}
	.st12{fill:none;stroke:#FFDF00;stroke-linecap:round;stroke-linejoin:round;stroke-dasharray:8.0918,8.0918;}
	.st13{fill:#FFFFFF;stroke:#00FFFF;stroke-width:0.2;stroke-miterlimit:10;}
	
		.st14{fill:none;stroke:#999999;stroke-width:0.5;stroke-linecap:round;stroke-linejoin:round;stroke-miterlimit:10;stroke-dasharray:8;}
	.st15{opacity:0.1;fill:#FBB03B;}
	.st16{fill:none;stroke:#FFCC00;stroke-width:2;stroke-linecap:round;stroke-linejoin:round;stroke-miterlimit:10;}
	.st17{fill:none;stroke:#CCCCCC;stroke-width:2;stroke-miterlimit:10;}
	.st18{fill:#B3B3B3;}
	
		.st19{fill:none;stroke:#808080;stroke-width:0.5;stroke-linecap:round;stroke-linejoin:round;stroke-miterlimit:10;stroke-dasharray:8;}
</style>
<g id="Layer_1">
	<rect x="21.89" y="11.93" class="st15" width="104.9" height="261.71"/>
	<g>
		<g>
			<path class="st18" d="M400.21,285.51v1.29h-3.16v7.95h-1.5v-7.95h-3.16v-1.29H400.21z"/>
			<path class="st18" d="M403.5,285.51v9.24H402v-9.24H403.5z"/>
			<path class="st18" d="M415.69,285.51v9.24h-1.39v-5.35l0.11-2.55h-0.01l-2.81,7.9h-1.25l-2.81-7.9h-0.01l0.11,2.55v5.35h-1.38
				v-9.24h2.23l1.86,5.35l0.64,2.2H411l0.66-2.2l1.85-5.35H415.69z"/>
			<path class="st18" d="M418.43,294.75v-9.24h6.69v1.29h-5.19v2.66h4.06v1.26h-4.06v2.74h5.39v1.29H418.43z"/>
		</g>
	</g>
	<g>
		<g>
			<path class="st7" d="M9.09,80.24v-5.1h1.29v6.59H1.14v-1.5H9.09z"/>
			<path class="st7" d="M10.38,72.41H1.14v-6.69h1.29v5.19h2.66v-4.06h1.26v4.06h2.74v-5.39h1.29V72.41z"/>
			<path class="st7" d="M10.38,63.64l-9.24-3.49v-1.79l9.24-3.49v1.58l-6.61,2.38l-1.33,0.42v0.04l1.3,0.39l6.64,2.41V63.64z
				 M7.96,61.78H6.74v-5h1.22V61.78z"/>
			<path class="st7" d="M1.14,48.52c0-0.99,0.25-1.78,0.74-2.36c0.5-0.58,1.16-0.88,2-0.88c0.87,0,1.54,0.29,2.01,0.88
				c0.47,0.58,0.71,1.37,0.71,2.36l0.08,0.14v2.14h3.7v1.48H1.14V48.52z M5.44,48.63c0-0.61-0.12-1.06-0.37-1.35
				c-0.25-0.29-0.63-0.44-1.14-0.44c-0.5,0-0.88,0.15-1.13,0.44c-0.25,0.29-0.38,0.74-0.38,1.35v2.17h3.02V48.63z M5.75,47.75
				l4.63-3.01v1.72l-4.05,2.58L5.75,47.75z"/>
			<path class="st7" d="M1.14,34.35h9.24v1.78L4.56,39.7l-1.64,0.9v0.01l1.5-0.06h5.96v1.37H1.14v-1.76l5.81-3.55l1.67-0.91v-0.01
				L7.1,35.74H1.14V34.35z"/>
			<path class="st7" d="M1.14,29.17h9.24v1.5H1.14V29.17z"/>
			<path class="st7" d="M1.14,17.9h9.24v1.78l-5.82,3.57l-1.64,0.9v0.01l1.5-0.06h5.96v1.37H1.14v-1.76l5.81-3.56l1.67-0.91v-0.01
				L7.1,19.29H1.14V17.9z"/>
			<path class="st7" d="M10.52,10.47c0,0.87-0.19,1.62-0.57,2.25s-0.93,1.13-1.63,1.48c-0.7,0.35-1.56,0.53-2.55,0.53
				c-0.98,0-1.82-0.18-2.53-0.55c-0.71-0.37-1.26-0.89-1.64-1.57C1.19,11.94,1,11.16,1,10.29c0-0.96,0.18-1.74,0.53-2.33
				c0.35-0.59,0.91-1.07,1.65-1.42l0.66,1.39C3.33,8.1,2.94,8.39,2.69,8.8C2.43,9.2,2.3,9.7,2.3,10.27c0,0.58,0.14,1.08,0.41,1.52
				c0.27,0.43,0.67,0.77,1.18,1.01c0.52,0.24,1.14,0.36,1.87,0.36c0.74,0,1.37-0.11,1.88-0.32c0.52-0.21,0.91-0.54,1.18-0.97
				c0.27-0.43,0.41-0.97,0.41-1.6c0-0.35-0.04-0.67-0.13-0.97c-0.09-0.3-0.22-0.56-0.39-0.78C8.53,8.3,8.31,8.12,8.05,8
				C7.78,7.87,7.47,7.81,7.1,7.81H6.84v2.69H5.62V6.48h4.76V7.6L8.52,7.68L8.66,7.4C9.25,7.63,9.7,8,10.03,8.52
				C10.36,9.03,10.52,9.69,10.52,10.47z"/>
		</g>
	</g>
	<line class="st19" x1="126.79" y1="25.02" x2="126.79" y2="273.64"/>
	<line class="st19" x1="381.38" y1="25.02" x2="381.38" y2="273.64"/>
	<g>
		<path class="st7" d="M18.94,11.03c-0.24,0.5,0.02,0.9,0.57,0.9h3.48c0.55,0,0.8-0.4,0.56-0.9l-1.92-3.86
			c-0.24-0.49-0.64-0.49-0.87,0.01L18.94,11.03z"/>
	</g>
	<g>
		<path class="st7" d="M420.12,271.33c-0.5-0.24-0.9,0.02-0.9,0.57v3.48c0,0.55,0.4,0.8,0.9,0.56l3.86-1.92
			c0.49-0.24,0.49-0.64-0.01-0.87L420.12,271.33z"/>
	</g>
	<g>
		<g>
			<path d="M43.12,179.93h4.73v1.2h-6.12v-8.58h1.39V179.93z"/>
			<path d="M50.47,180.85c-0.49-0.27-0.88-0.66-1.15-1.17c-0.27-0.51-0.41-1.11-0.41-1.8s0.14-1.29,0.41-1.8
				c0.27-0.51,0.65-0.9,1.13-1.17c0.48-0.27,1.03-0.41,1.66-0.41c0.62,0,1.15,0.13,1.59,0.38c0.45,0.26,0.79,0.61,1.03,1.07
				s0.36,0.97,0.36,1.54c0,0.16,0,0.3-0.01,0.44s-0.02,0.26-0.04,0.36H49.8v-1.07h4.62l-0.7,0.47c0.05-0.66-0.07-1.17-0.36-1.54
				c-0.29-0.37-0.72-0.55-1.27-0.55c-0.38,0-0.71,0.09-0.98,0.26c-0.27,0.17-0.48,0.43-0.63,0.78s-0.22,0.76-0.22,1.25
				s0.08,0.9,0.23,1.24c0.16,0.34,0.38,0.59,0.66,0.77c0.29,0.17,0.62,0.26,1.01,0.26c0.42,0,0.77-0.08,1.04-0.24
				s0.49-0.39,0.65-0.7l1.11,0.52c-0.23,0.48-0.59,0.85-1.08,1.12s-1.05,0.4-1.69,0.4C51.53,181.26,50.96,181.12,50.47,180.85z"/>
			<path d="M60.24,175.95c-0.24-0.24-0.57-0.36-0.98-0.36c-0.4,0-0.74,0.1-1.01,0.29c-0.28,0.19-0.48,0.48-0.6,0.87l-1.17-0.49
				c0.17-0.55,0.5-0.98,0.98-1.29c0.48-0.31,1.1-0.47,1.85-0.47c0.81,0,1.45,0.2,1.94,0.59c0.49,0.39,0.73,0.97,0.73,1.72v2.9
				c0,0.32,0.16,0.48,0.48,0.48c0.16,0,0.31-0.02,0.46-0.06l-0.08,0.96c-0.2,0.09-0.45,0.14-0.75,0.14
				c-0.44-0.01-0.8-0.13-1.06-0.36c-0.26-0.23-0.39-0.57-0.38-1.01v-0.03l0.27-0.08c-0.08,0.32-0.23,0.59-0.47,0.82
				c-0.23,0.23-0.51,0.39-0.84,0.51c-0.33,0.11-0.66,0.17-1,0.17c-0.64,0-1.16-0.15-1.55-0.46c-0.39-0.31-0.59-0.74-0.59-1.31
				c0-0.48,0.16-0.87,0.47-1.18c0.31-0.31,0.76-0.53,1.35-0.65l2.52-0.49l-0.01,0.97l-1.83,0.38c-0.39,0.08-0.67,0.18-0.84,0.31
				c-0.17,0.13-0.25,0.32-0.25,0.56c0,0.24,0.09,0.44,0.28,0.58c0.19,0.14,0.44,0.21,0.75,0.21c0.31,0,0.6-0.05,0.85-0.16
				c0.26-0.1,0.46-0.26,0.62-0.47c0.16-0.21,0.23-0.49,0.23-0.83v-1.77C60.59,176.53,60.47,176.2,60.24,175.95z"/>
			<path d="M64.25,181.13v-6.5h1.18l0.13,1.17c0.17-0.42,0.43-0.75,0.77-0.97c0.34-0.22,0.77-0.33,1.27-0.33
				c0.13,0,0.26,0.01,0.39,0.03s0.24,0.05,0.33,0.1l-0.2,1.22c-0.1-0.03-0.2-0.06-0.32-0.08s-0.28-0.03-0.47-0.03
				c-0.27,0-0.53,0.07-0.79,0.21c-0.26,0.14-0.47,0.36-0.64,0.64s-0.25,0.65-0.25,1.09v3.45H64.25z"/>
			<path d="M69.63,181.13v-6.5h1.24l0.09,1.69l-0.18-0.18c0.12-0.37,0.3-0.68,0.53-0.93c0.23-0.25,0.5-0.43,0.82-0.54
				c0.32-0.11,0.65-0.17,1.01-0.17c0.46,0,0.87,0.09,1.24,0.27s0.66,0.44,0.88,0.8c0.22,0.36,0.32,0.81,0.32,1.35v4.21h-1.39v-3.78
				c0-0.64-0.13-1.09-0.4-1.33c-0.26-0.25-0.6-0.37-0.99-0.37c-0.29,0-0.56,0.07-0.83,0.2c-0.27,0.13-0.49,0.35-0.67,0.64
				c-0.18,0.29-0.27,0.69-0.27,1.18v3.46H69.63z"/>
			<path d="M78.38,173.54c-0.3,0-0.54-0.08-0.7-0.23c-0.16-0.15-0.24-0.37-0.24-0.64s0.08-0.49,0.24-0.64
				c0.16-0.15,0.39-0.22,0.7-0.22c0.29,0,0.52,0.07,0.68,0.22c0.16,0.15,0.24,0.36,0.24,0.64s-0.08,0.49-0.24,0.64
				C78.9,173.46,78.67,173.54,78.38,173.54z M79.07,174.63v6.5h-1.39v-6.5H79.07z"/>
			<path d="M81.24,181.13v-6.5h1.24l0.09,1.69l-0.18-0.18c0.12-0.37,0.3-0.68,0.53-0.93c0.23-0.25,0.5-0.43,0.82-0.54
				c0.32-0.11,0.65-0.17,1.01-0.17c0.46,0,0.87,0.09,1.24,0.27s0.66,0.44,0.88,0.8c0.22,0.36,0.32,0.81,0.32,1.35v4.21h-1.39v-3.78
				c0-0.64-0.13-1.09-0.4-1.33c-0.26-0.25-0.6-0.37-0.99-0.37c-0.29,0-0.56,0.07-0.83,0.2c-0.27,0.13-0.49,0.35-0.67,0.64
				c-0.18,0.29-0.27,0.69-0.27,1.18v3.46H81.24z"/>
			<path d="M92.95,180.11c0.66,0,1.17,0.15,1.53,0.44c0.36,0.29,0.55,0.69,0.55,1.2c0,0.45-0.14,0.84-0.43,1.16
				c-0.29,0.33-0.67,0.57-1.16,0.75c-0.49,0.17-1.05,0.26-1.68,0.26c-1.07,0-1.85-0.17-2.37-0.49c-0.51-0.33-0.77-0.74-0.77-1.24
				c0-0.36,0.13-0.66,0.38-0.92s0.68-0.4,1.27-0.43l-0.1,0.21c-0.36-0.08-0.66-0.22-0.88-0.42c-0.22-0.2-0.33-0.49-0.33-0.86
				c0-0.37,0.14-0.69,0.43-0.95c0.29-0.26,0.69-0.41,1.21-0.46l0.57,0.35c-0.4,0.03-0.68,0.13-0.84,0.27
				c-0.17,0.15-0.25,0.31-0.25,0.49c0,0.22,0.08,0.38,0.24,0.48c0.16,0.1,0.39,0.16,0.68,0.16H92.95z M91.7,174.5
				c0.57,0,1.07,0.09,1.49,0.27c0.42,0.18,0.75,0.44,0.98,0.77c0.23,0.33,0.34,0.71,0.34,1.16c0,0.44-0.11,0.83-0.34,1.16
				c-0.23,0.33-0.55,0.58-0.98,0.77c-0.42,0.18-0.92,0.27-1.49,0.27c-0.9,0-1.59-0.2-2.07-0.6c-0.48-0.4-0.72-0.93-0.72-1.59
				c0-0.44,0.11-0.83,0.34-1.16c0.23-0.33,0.56-0.58,0.98-0.77C90.66,174.59,91.15,174.5,91.7,174.5z M91.75,182.88
				c0.48,0,0.87-0.05,1.18-0.14s0.54-0.21,0.69-0.35c0.15-0.14,0.23-0.3,0.23-0.47c0-0.2-0.08-0.36-0.24-0.48s-0.45-0.18-0.86-0.18
				h-2.09c-0.24,0-0.45,0.06-0.61,0.19c-0.17,0.13-0.25,0.3-0.25,0.51c0,0.29,0.17,0.51,0.52,0.68
				C90.66,182.8,91.14,182.88,91.75,182.88z M91.7,175.47c-0.4,0-0.73,0.11-0.99,0.33c-0.26,0.22-0.4,0.52-0.4,0.89
				c0,0.37,0.13,0.67,0.4,0.9c0.26,0.23,0.6,0.34,0.99,0.34c0.41,0,0.74-0.11,1.01-0.34c0.26-0.23,0.4-0.52,0.4-0.9
				c0-0.37-0.13-0.67-0.4-0.89C92.45,175.58,92.11,175.47,91.7,175.47z M95,173.26l0.22,1.08c-0.31-0.01-0.57,0.02-0.79,0.1
				c-0.21,0.07-0.37,0.19-0.48,0.35c-0.11,0.16-0.16,0.36-0.15,0.59l-0.69-0.27c-0.01-0.27,0.03-0.52,0.12-0.75
				c0.09-0.23,0.21-0.43,0.38-0.59c0.17-0.16,0.37-0.29,0.6-0.38C94.46,173.29,94.72,173.25,95,173.26z"/>
			<path d="M45.67,190.23v1.09h-4.88v-1.09H45.67z M43.43,188.32v6.46c0,0.32,0.08,0.55,0.25,0.7s0.4,0.22,0.68,0.22
				c0.23,0,0.44-0.04,0.61-0.11c0.17-0.07,0.33-0.17,0.48-0.3l0.31,1.01c-0.2,0.17-0.44,0.31-0.74,0.41
				c-0.29,0.1-0.61,0.15-0.97,0.15c-0.37,0-0.71-0.06-1.03-0.18c-0.31-0.12-0.55-0.32-0.73-0.59c-0.17-0.27-0.26-0.63-0.27-1.07
				v-6.3L43.43,188.32z"/>
			<path d="M47.05,196.73v-9.42h1.39v3.96c0.22-0.41,0.51-0.7,0.88-0.89c0.37-0.19,0.78-0.28,1.23-0.28c0.46,0,0.87,0.09,1.24,0.27
				s0.66,0.44,0.88,0.8c0.22,0.36,0.32,0.81,0.32,1.35v4.21H51.6v-3.77c0-0.64-0.13-1.09-0.4-1.34c-0.26-0.25-0.6-0.38-0.99-0.38
				c-0.28,0-0.55,0.07-0.83,0.2c-0.27,0.13-0.5,0.35-0.68,0.65c-0.18,0.3-0.27,0.7-0.27,1.2v3.43H47.05z"/>
			<path d="M56.24,196.45c-0.49-0.27-0.88-0.66-1.15-1.17c-0.27-0.51-0.41-1.11-0.41-1.8s0.14-1.29,0.41-1.8
				c0.27-0.51,0.65-0.9,1.13-1.17c0.48-0.27,1.03-0.41,1.66-0.41c0.62,0,1.15,0.13,1.59,0.38s0.79,0.61,1.03,1.07
				s0.36,0.97,0.36,1.54c0,0.16,0,0.3-0.01,0.44c-0.01,0.14-0.02,0.26-0.04,0.36h-5.23v-1.07h4.62l-0.7,0.47
				c0.05-0.66-0.07-1.17-0.36-1.54c-0.29-0.37-0.72-0.55-1.27-0.55c-0.38,0-0.71,0.09-0.98,0.26s-0.48,0.43-0.63,0.78
				s-0.22,0.76-0.22,1.25s0.08,0.9,0.23,1.23c0.16,0.34,0.38,0.59,0.66,0.77c0.29,0.17,0.62,0.26,1.01,0.26
				c0.42,0,0.77-0.08,1.04-0.24c0.27-0.16,0.49-0.39,0.65-0.7l1.11,0.52c-0.23,0.48-0.59,0.85-1.08,1.12s-1.05,0.4-1.69,0.4
				C57.3,196.86,56.73,196.72,56.24,196.45z"/>
			<path d="M70.32,196.86c-0.38,0-0.73-0.07-1.05-0.22s-0.58-0.35-0.8-0.62s-0.38-0.56-0.48-0.89l0.17-0.22l-0.1,1.82h-1.22v-9.42
				h1.39v4.56l-0.16-0.22c0.16-0.45,0.45-0.82,0.84-1.11c0.4-0.29,0.88-0.44,1.44-0.44c0.52,0,1,0.13,1.44,0.4s0.78,0.65,1.03,1.16
				c0.25,0.5,0.38,1.11,0.38,1.83c0,0.7-0.13,1.3-0.38,1.81s-0.6,0.89-1.04,1.16S70.86,196.86,70.32,196.86z M70.02,195.74
				c0.56,0,1-0.2,1.32-0.6c0.32-0.4,0.47-0.96,0.47-1.66s-0.16-1.25-0.47-1.65c-0.31-0.4-0.75-0.6-1.31-0.6
				c-0.36,0-0.68,0.09-0.95,0.28c-0.27,0.19-0.48,0.45-0.63,0.79s-0.23,0.74-0.23,1.21c0,0.46,0.07,0.86,0.22,1.19
				c0.15,0.33,0.36,0.59,0.63,0.77C69.35,195.65,69.66,195.74,70.02,195.74z"/>
			<path d="M78.38,191.55c-0.24-0.24-0.57-0.36-0.98-0.36c-0.4,0-0.74,0.1-1.01,0.29c-0.28,0.19-0.48,0.48-0.6,0.87l-1.17-0.49
				c0.17-0.55,0.5-0.97,0.98-1.29c0.48-0.31,1.1-0.47,1.85-0.47c0.81,0,1.45,0.2,1.94,0.59s0.73,0.97,0.73,1.72v2.9
				c0,0.32,0.16,0.48,0.48,0.48c0.16,0,0.31-0.02,0.46-0.07l-0.08,0.96c-0.2,0.1-0.45,0.14-0.75,0.14c-0.44-0.01-0.8-0.13-1.06-0.36
				c-0.26-0.23-0.39-0.57-0.38-1.01v-0.03l0.27-0.08c-0.08,0.32-0.23,0.59-0.47,0.82c-0.23,0.23-0.51,0.39-0.84,0.51
				c-0.33,0.11-0.66,0.17-1,0.17c-0.64,0-1.16-0.15-1.55-0.46c-0.39-0.31-0.59-0.74-0.59-1.31c0-0.48,0.16-0.87,0.47-1.18
				c0.31-0.31,0.76-0.53,1.35-0.65l2.52-0.49l-0.01,0.97l-1.83,0.38c-0.39,0.08-0.67,0.18-0.84,0.31s-0.25,0.32-0.25,0.56
				c0,0.24,0.09,0.44,0.28,0.58c0.19,0.14,0.44,0.21,0.75,0.21c0.31,0,0.6-0.05,0.85-0.16c0.26-0.1,0.46-0.26,0.62-0.47
				c0.16-0.21,0.23-0.49,0.23-0.83v-1.77C78.74,192.13,78.62,191.8,78.38,191.55z"/>
			<path d="M83.08,196.47c-0.54-0.26-0.96-0.61-1.27-1.06l0.96-0.83c0.2,0.37,0.48,0.66,0.84,0.86c0.36,0.2,0.79,0.31,1.27,0.31
				c0.4,0,0.71-0.07,0.95-0.21c0.23-0.14,0.35-0.34,0.35-0.58c0-0.18-0.06-0.33-0.18-0.46s-0.32-0.21-0.6-0.27l-1.36-0.29
				c-0.68-0.14-1.17-0.36-1.47-0.66c-0.3-0.3-0.46-0.7-0.46-1.18c0-0.36,0.11-0.7,0.33-1c0.22-0.3,0.53-0.55,0.93-0.73
				c0.4-0.18,0.88-0.27,1.42-0.27c0.64,0,1.19,0.12,1.66,0.34s0.82,0.56,1.06,0.98l-0.96,0.81c-0.17-0.34-0.4-0.59-0.71-0.77
				c-0.31-0.17-0.65-0.26-1.01-0.26c-0.28,0-0.52,0.03-0.71,0.1s-0.35,0.17-0.46,0.29c-0.1,0.13-0.16,0.27-0.16,0.42
				c0,0.18,0.07,0.34,0.21,0.46s0.37,0.22,0.69,0.29l1.48,0.31c0.6,0.12,1.03,0.32,1.3,0.6s0.4,0.64,0.4,1.07
				c0,0.63-0.24,1.14-0.73,1.52c-0.49,0.38-1.15,0.57-1.98,0.57C84.21,196.86,83.62,196.73,83.08,196.47z"/>
			<path d="M89.97,189.14c-0.3,0-0.54-0.08-0.7-0.23c-0.16-0.15-0.24-0.37-0.24-0.64s0.08-0.49,0.24-0.64
				c0.16-0.15,0.39-0.22,0.7-0.22c0.29,0,0.52,0.07,0.68,0.22c0.16,0.15,0.24,0.36,0.24,0.64s-0.08,0.49-0.24,0.64
				C90.49,189.06,90.27,189.14,89.97,189.14z M90.66,190.23v6.5h-1.39v-6.5H90.66z"/>
			<path d="M95.64,190.1c0.52,0,0.96,0.08,1.33,0.23c0.37,0.15,0.68,0.37,0.93,0.64c0.25,0.28,0.44,0.59,0.57,0.95l-1.31,0.52
				c-0.11-0.4-0.29-0.7-0.54-0.92c-0.25-0.21-0.57-0.32-0.97-0.32c-0.39,0-0.72,0.09-1,0.27c-0.28,0.18-0.49,0.43-0.63,0.77
				c-0.14,0.34-0.21,0.75-0.21,1.25c0,0.49,0.07,0.9,0.22,1.23c0.15,0.34,0.36,0.59,0.64,0.77c0.28,0.17,0.61,0.26,0.99,0.26
				c0.29,0,0.55-0.05,0.77-0.15s0.4-0.24,0.54-0.43c0.14-0.19,0.24-0.41,0.29-0.68l1.26,0.43c-0.12,0.39-0.31,0.73-0.57,1.02
				s-0.57,0.52-0.96,0.68c-0.38,0.16-0.82,0.24-1.31,0.24c-0.64,0-1.21-0.13-1.7-0.4s-0.88-0.66-1.15-1.16
				c-0.27-0.51-0.41-1.11-0.41-1.81s0.14-1.31,0.41-1.81c0.27-0.51,0.65-0.89,1.14-1.16C94.46,190.23,95.02,190.1,95.64,190.1z"/>
			<path d="M100.83,196.47c-0.54-0.26-0.96-0.61-1.27-1.06l0.96-0.83c0.2,0.37,0.48,0.66,0.84,0.86c0.36,0.2,0.79,0.31,1.27,0.31
				c0.4,0,0.71-0.07,0.95-0.21c0.23-0.14,0.35-0.34,0.35-0.58c0-0.18-0.06-0.33-0.18-0.46s-0.32-0.21-0.6-0.27l-1.36-0.29
				c-0.68-0.14-1.17-0.36-1.47-0.66c-0.3-0.3-0.46-0.7-0.46-1.18c0-0.36,0.11-0.7,0.33-1c0.22-0.3,0.53-0.55,0.93-0.73
				c0.4-0.18,0.88-0.27,1.42-0.27c0.64,0,1.19,0.12,1.66,0.34s0.82,0.56,1.06,0.98l-0.96,0.81c-0.17-0.34-0.4-0.59-0.71-0.77
				c-0.31-0.17-0.65-0.26-1.01-0.26c-0.28,0-0.52,0.03-0.71,0.1s-0.35,0.17-0.46,0.29c-0.1,0.13-0.16,0.27-0.16,0.42
				c0,0.18,0.07,0.34,0.21,0.46s0.37,0.22,0.69,0.29l1.48,0.31c0.6,0.12,1.03,0.32,1.3,0.6s0.4,0.64,0.4,1.07
				c0,0.63-0.24,1.14-0.73,1.52c-0.49,0.38-1.15,0.57-1.98,0.57C101.96,196.86,101.37,196.73,100.83,196.47z"/>
			<path d="M107.72,194.97c0.29,0,0.53,0.08,0.71,0.25s0.27,0.4,0.27,0.68c0,0.29-0.09,0.52-0.27,0.69
				c-0.18,0.17-0.41,0.26-0.71,0.26c-0.3,0-0.54-0.09-0.72-0.26c-0.18-0.17-0.27-0.4-0.27-0.69c0-0.29,0.09-0.51,0.27-0.68
				S107.41,194.97,107.72,194.97z"/>
		</g>
	</g>
	<g>
		<g>
			<path d="M411.57,77.33v8.58h-0.48l-5.24-7.46l-0.44-0.71h-0.01l0.03,0.84v7.33h-0.35v-8.58h0.47l5.25,7.46l0.44,0.73l-0.01-0.86
				v-7.33H411.57z"/>
			<path d="M415.02,85.63c-0.46-0.27-0.82-0.66-1.09-1.17c-0.26-0.51-0.4-1.11-0.4-1.8c0-0.68,0.13-1.28,0.39-1.79
				c0.26-0.51,0.61-0.9,1.06-1.18c0.45-0.27,0.95-0.41,1.5-0.41c0.57,0,1.07,0.13,1.48,0.39s0.73,0.63,0.96,1.11
				s0.33,1.04,0.33,1.68c0,0.04,0,0.08,0,0.12c0,0.03,0,0.06-0.01,0.09h-5.49v-0.33h5.33l-0.18,0.13c0.01-0.87-0.2-1.56-0.62-2.09
				c-0.42-0.52-1.02-0.79-1.79-0.79c-0.49,0-0.94,0.12-1.33,0.37c-0.39,0.25-0.7,0.6-0.92,1.07s-0.34,1.01-0.34,1.63
				s0.11,1.17,0.34,1.63c0.23,0.46,0.55,0.82,0.95,1.07c0.4,0.25,0.86,0.37,1.38,0.37c0.52,0,0.98-0.12,1.39-0.37
				c0.41-0.25,0.72-0.58,0.94-1.01l0.29,0.16c-0.23,0.48-0.58,0.85-1.05,1.13c-0.46,0.27-0.98,0.41-1.55,0.41
				C416.01,86.04,415.48,85.91,415.02,85.63z"/>
			<path d="M425.7,79.41l-2.48,3.2l-0.08,0.09l-2.5,3.21h-0.45l2.73-3.5l0.04-0.04l2.29-2.96H425.7z M420.78,79.41l2.34,2.91
				l0.05,0.06l2.83,3.52h-0.49l-2.56-3.19l-0.07-0.08l-2.6-3.24H420.78z"/>
			<path d="M430.53,79.41v0.31h-4.15v-0.31H430.53z M428.05,77.64v6.6c0,0.48,0.1,0.84,0.31,1.09c0.21,0.25,0.53,0.38,0.96,0.38
				c0.23,0,0.44-0.04,0.63-0.12c0.19-0.08,0.36-0.2,0.51-0.36l0.16,0.3c-0.14,0.15-0.32,0.27-0.56,0.36
				c-0.23,0.1-0.49,0.14-0.77,0.14c-0.34,0-0.63-0.07-0.88-0.2s-0.43-0.33-0.55-0.59c-0.12-0.26-0.18-0.59-0.18-0.98v-6.53
				L428.05,77.64z"/>
			<path d="M405.2,101.24c-0.48-0.27-0.8-0.66-0.96-1.17l0.33-0.18c0.13,0.46,0.41,0.82,0.83,1.07c0.42,0.25,0.96,0.38,1.6,0.38
				s1.15-0.13,1.53-0.4c0.38-0.26,0.57-0.62,0.57-1.06c0-0.32-0.1-0.58-0.31-0.79c-0.21-0.2-0.56-0.36-1.07-0.46l-1.49-0.33
				c-0.59-0.13-1.02-0.33-1.29-0.6c-0.27-0.27-0.4-0.61-0.4-1.01c0-0.34,0.1-0.64,0.31-0.92s0.5-0.49,0.86-0.65
				c0.37-0.16,0.79-0.24,1.25-0.24c0.67,0,1.21,0.13,1.62,0.39c0.41,0.26,0.69,0.66,0.83,1.2l-0.31,0.2
				c-0.12-0.49-0.36-0.86-0.72-1.11c-0.36-0.24-0.83-0.36-1.41-0.36c-0.4,0-0.75,0.06-1.07,0.19c-0.31,0.13-0.56,0.3-0.73,0.52
				c-0.18,0.22-0.27,0.47-0.27,0.73c0,0.32,0.11,0.59,0.32,0.81c0.21,0.22,0.56,0.39,1.05,0.5l1.53,0.34
				c0.59,0.13,1.01,0.32,1.27,0.58c0.26,0.26,0.38,0.58,0.38,0.98c0,0.55-0.23,0.99-0.68,1.31c-0.45,0.32-1.06,0.48-1.83,0.48
				C406.27,101.64,405.68,101.51,405.2,101.24z"/>
			<path d="M412.25,101.23c-0.46-0.27-0.82-0.66-1.09-1.17s-0.4-1.11-0.4-1.8c0-0.68,0.13-1.28,0.39-1.79
				c0.26-0.51,0.61-0.9,1.06-1.18c0.45-0.27,0.95-0.41,1.5-0.41c0.57,0,1.07,0.13,1.48,0.39c0.42,0.26,0.73,0.63,0.96,1.11
				s0.33,1.04,0.33,1.68c0,0.04,0,0.08,0,0.12c0,0.04,0,0.07-0.01,0.09h-5.49v-0.33h5.33l-0.18,0.13c0.01-0.87-0.2-1.56-0.62-2.09
				s-1.02-0.79-1.79-0.79c-0.49,0-0.94,0.12-1.33,0.37c-0.39,0.25-0.7,0.6-0.92,1.07c-0.23,0.46-0.34,1.01-0.34,1.63
				s0.11,1.17,0.34,1.63c0.23,0.46,0.55,0.82,0.95,1.07c0.4,0.25,0.86,0.37,1.38,0.37c0.52,0,0.98-0.12,1.39-0.37
				c0.41-0.25,0.72-0.58,0.94-1.01l0.29,0.16c-0.23,0.48-0.58,0.85-1.05,1.12s-0.98,0.41-1.55,0.41
				C413.24,101.64,412.71,101.51,412.25,101.23z"/>
			<path d="M418.59,101.24c-0.48-0.27-0.8-0.66-0.96-1.17l0.33-0.18c0.13,0.46,0.41,0.82,0.83,1.07c0.42,0.25,0.96,0.38,1.6,0.38
				s1.15-0.13,1.53-0.4c0.38-0.26,0.57-0.62,0.57-1.06c0-0.32-0.1-0.58-0.31-0.79c-0.21-0.2-0.56-0.36-1.07-0.46l-1.49-0.33
				c-0.59-0.13-1.02-0.33-1.29-0.6c-0.27-0.27-0.4-0.61-0.4-1.01c0-0.34,0.1-0.64,0.31-0.92s0.5-0.49,0.86-0.65
				c0.37-0.16,0.79-0.24,1.25-0.24c0.67,0,1.21,0.13,1.62,0.39c0.41,0.26,0.69,0.66,0.83,1.2l-0.31,0.2
				c-0.12-0.49-0.36-0.86-0.72-1.11c-0.36-0.24-0.83-0.36-1.41-0.36c-0.4,0-0.75,0.06-1.07,0.19c-0.31,0.13-0.56,0.3-0.73,0.52
				c-0.18,0.22-0.27,0.47-0.27,0.73c0,0.32,0.11,0.59,0.32,0.81c0.21,0.22,0.56,0.39,1.05,0.5l1.53,0.34
				c0.59,0.13,1.01,0.32,1.27,0.58c0.26,0.26,0.38,0.58,0.38,0.98c0,0.55-0.23,0.99-0.68,1.31c-0.45,0.32-1.06,0.48-1.83,0.48
				C419.66,101.64,419.07,101.51,418.59,101.24z"/>
			<path d="M424.94,101.24c-0.48-0.27-0.8-0.66-0.96-1.17l0.33-0.18c0.13,0.46,0.41,0.82,0.83,1.07c0.42,0.25,0.96,0.38,1.6,0.38
				s1.15-0.13,1.53-0.4c0.38-0.26,0.57-0.62,0.57-1.06c0-0.32-0.1-0.58-0.31-0.79c-0.21-0.2-0.56-0.36-1.07-0.46l-1.49-0.33
				c-0.59-0.13-1.02-0.33-1.29-0.6c-0.27-0.27-0.4-0.61-0.4-1.01c0-0.34,0.1-0.64,0.31-0.92s0.5-0.49,0.86-0.65
				c0.37-0.16,0.79-0.24,1.25-0.24c0.67,0,1.21,0.13,1.62,0.39c0.41,0.26,0.69,0.66,0.83,1.2l-0.31,0.2
				c-0.12-0.49-0.36-0.86-0.72-1.11c-0.36-0.24-0.83-0.36-1.41-0.36c-0.4,0-0.75,0.06-1.07,0.19c-0.31,0.13-0.56,0.3-0.73,0.52
				c-0.18,0.22-0.27,0.47-0.27,0.73c0,0.32,0.11,0.59,0.32,0.81c0.21,0.22,0.56,0.39,1.05,0.5l1.53,0.34
				c0.59,0.13,1.01,0.32,1.27,0.58c0.26,0.26,0.38,0.58,0.38,0.98c0,0.55-0.23,0.99-0.68,1.31c-0.45,0.32-1.06,0.48-1.83,0.48
				C426,101.64,425.42,101.51,424.94,101.24z"/>
			<path d="M431.13,93.74c-0.11,0-0.2-0.04-0.27-0.1s-0.1-0.16-0.1-0.27c0-0.11,0.04-0.2,0.1-0.27s0.16-0.1,0.29-0.1
				c0.11,0,0.2,0.03,0.27,0.1s0.1,0.16,0.1,0.27c0,0.11-0.04,0.2-0.1,0.27S431.25,93.74,431.13,93.74z M431.31,95.01v6.5h-0.36v-6.5
				H431.31z"/>
			<path d="M436.19,94.88c0.6,0,1.12,0.13,1.58,0.4s0.81,0.66,1.07,1.16c0.26,0.51,0.39,1.11,0.39,1.81s-0.13,1.31-0.39,1.81
				c-0.26,0.51-0.62,0.9-1.07,1.16s-0.98,0.4-1.58,0.4s-1.13-0.13-1.59-0.4c-0.46-0.27-0.82-0.66-1.09-1.16s-0.4-1.11-0.4-1.81
				s0.13-1.31,0.4-1.81s0.63-0.89,1.09-1.16C435.06,95.02,435.59,94.88,436.19,94.88z M436.19,95.2c-0.54,0-1.01,0.12-1.41,0.37
				c-0.4,0.25-0.72,0.6-0.95,1.05c-0.23,0.46-0.34,1-0.34,1.64c0,0.63,0.11,1.18,0.34,1.64c0.23,0.46,0.55,0.81,0.95,1.06
				c0.4,0.25,0.87,0.37,1.41,0.37c0.53,0,1-0.12,1.4-0.37c0.41-0.25,0.72-0.6,0.95-1.06c0.23-0.46,0.34-1.01,0.34-1.64
				c0-0.64-0.11-1.19-0.34-1.64s-0.54-0.81-0.95-1.05C437.18,95.32,436.72,95.2,436.19,95.2z"/>
			<path d="M441.04,101.51v-6.5h0.35l0.01,1.75l-0.04-0.06c0.1-0.36,0.28-0.67,0.53-0.95s0.55-0.49,0.91-0.64
				c0.36-0.15,0.76-0.23,1.2-0.23c0.49,0,0.92,0.09,1.29,0.28c0.36,0.19,0.65,0.45,0.85,0.8c0.2,0.35,0.31,0.78,0.31,1.3v4.25h-0.36
				v-4.16c0-0.7-0.19-1.24-0.58-1.61c-0.39-0.37-0.9-0.55-1.55-0.55c-0.47,0-0.9,0.11-1.28,0.33s-0.69,0.52-0.92,0.89
				s-0.34,0.8-0.34,1.27v3.82H441.04z"/>
			<path d="M448.69,100.81c0.12,0,0.22,0.04,0.29,0.1s0.1,0.17,0.1,0.29c0,0.11-0.03,0.21-0.1,0.28s-0.17,0.11-0.29,0.11
				c-0.11,0-0.21-0.04-0.28-0.11c-0.07-0.07-0.11-0.17-0.11-0.28c0-0.12,0.04-0.22,0.11-0.29
				C448.49,100.85,448.58,100.81,448.69,100.81z"/>
		</g>
	</g>
	<g>
		<g>
			<path d="M156.23,57.01c0.62,0,1.15,0.11,1.59,0.33c0.45,0.22,0.79,0.52,1.05,0.92c0.25,0.4,0.38,0.88,0.38,1.44
				c0,0.55-0.13,1.03-0.38,1.44s-0.6,0.71-1.05,0.93c-0.45,0.22-0.98,0.32-1.59,0.32h-1.91v3.2h-1.39v-8.58H156.23z M156.01,61.2
				c0.62,0,1.07-0.13,1.36-0.38c0.29-0.26,0.44-0.63,0.44-1.11c0-0.49-0.15-0.87-0.44-1.13c-0.29-0.25-0.74-0.38-1.36-0.38h-1.69v3
				H156.01z"/>
			<path d="M162.23,56.16v7.61c0,0.32,0.06,0.54,0.17,0.66c0.11,0.12,0.3,0.18,0.56,0.18c0.16,0,0.29-0.01,0.4-0.03
				s0.24-0.06,0.41-0.12l-0.16,1.04c-0.15,0.07-0.32,0.12-0.51,0.16c-0.19,0.04-0.38,0.06-0.57,0.06c-0.58,0-1.01-0.15-1.28-0.45
				c-0.27-0.3-0.41-0.76-0.41-1.38v-7.72H162.23z"/>
			<path d="M168.34,60.42c-0.24-0.24-0.57-0.36-0.98-0.36c-0.4,0-0.74,0.1-1.01,0.29c-0.28,0.19-0.48,0.48-0.6,0.87l-1.17-0.49
				c0.17-0.55,0.5-0.97,0.98-1.29c0.48-0.31,1.1-0.47,1.85-0.47c0.81,0,1.45,0.2,1.94,0.59s0.73,0.97,0.73,1.72v2.9
				c0,0.32,0.16,0.48,0.48,0.48c0.16,0,0.31-0.02,0.46-0.07l-0.08,0.96c-0.2,0.1-0.45,0.14-0.75,0.14c-0.44-0.01-0.8-0.13-1.06-0.36
				c-0.26-0.23-0.39-0.57-0.38-1.01V64.3l0.27-0.08c-0.08,0.32-0.23,0.59-0.47,0.82c-0.23,0.23-0.51,0.39-0.84,0.51
				c-0.33,0.11-0.66,0.17-1,0.17c-0.64,0-1.16-0.15-1.55-0.46c-0.39-0.31-0.59-0.74-0.59-1.31c0-0.48,0.16-0.87,0.47-1.18
				c0.31-0.31,0.76-0.53,1.35-0.65l2.52-0.49l-0.01,0.97l-1.83,0.38c-0.39,0.08-0.67,0.18-0.84,0.31s-0.25,0.32-0.25,0.56
				c0,0.24,0.09,0.44,0.28,0.58c0.19,0.14,0.44,0.21,0.75,0.21c0.31,0,0.6-0.05,0.85-0.16c0.26-0.1,0.46-0.26,0.62-0.47
				c0.16-0.21,0.23-0.49,0.23-0.83v-1.77C168.69,60.99,168.57,60.66,168.34,60.42z"/>
			<path d="M178.05,59.09l-2.85,7.27c-0.19,0.5-0.4,0.9-0.62,1.2c-0.22,0.29-0.47,0.51-0.76,0.64c-0.29,0.13-0.62,0.19-1,0.19
				c-0.31,0-0.6-0.04-0.86-0.12c-0.26-0.08-0.5-0.19-0.7-0.33l0.34-1.08c0.17,0.14,0.34,0.24,0.53,0.31s0.39,0.1,0.6,0.1
				c0.23,0,0.44-0.06,0.63-0.19c0.19-0.13,0.35-0.37,0.5-0.75l0.29-0.7l-0.69-1.61l-2.03-4.93H173l1.44,4.08l0.38,1.22l0.43-1.34
				l1.37-3.96H178.05z"/>
			<path d="M179.94,58c-0.3,0-0.54-0.08-0.7-0.23c-0.16-0.15-0.24-0.37-0.24-0.64s0.08-0.49,0.24-0.64c0.16-0.15,0.39-0.22,0.7-0.22
				c0.29,0,0.52,0.07,0.68,0.22c0.16,0.15,0.24,0.36,0.24,0.64s-0.08,0.49-0.24,0.64C180.46,57.92,180.23,58,179.94,58z
				 M180.63,59.09v6.5h-1.39v-6.5H180.63z"/>
			<path d="M182.8,65.59v-6.5h1.24l0.09,1.69l-0.18-0.18c0.12-0.37,0.3-0.68,0.53-0.93c0.23-0.25,0.5-0.43,0.82-0.54
				c0.32-0.11,0.65-0.17,1.01-0.17c0.46,0,0.87,0.09,1.24,0.27s0.66,0.44,0.88,0.8c0.22,0.36,0.32,0.81,0.32,1.35v4.21h-1.39v-3.78
				c0-0.64-0.13-1.08-0.4-1.33s-0.6-0.37-0.99-0.37c-0.29,0-0.56,0.07-0.83,0.2s-0.49,0.35-0.67,0.64s-0.27,0.69-0.27,1.18v3.46
				H182.8z"/>
			<path d="M194.51,64.58c0.66,0,1.17,0.15,1.53,0.44c0.36,0.29,0.55,0.69,0.55,1.2c0,0.45-0.14,0.84-0.43,1.16
				c-0.29,0.32-0.67,0.57-1.16,0.75s-1.05,0.26-1.68,0.26c-1.07,0-1.85-0.16-2.37-0.49c-0.51-0.33-0.77-0.74-0.77-1.23
				c0-0.36,0.13-0.66,0.38-0.92c0.25-0.26,0.68-0.4,1.27-0.43l-0.1,0.21c-0.36-0.08-0.66-0.22-0.88-0.42
				c-0.22-0.2-0.33-0.49-0.33-0.87c0-0.37,0.14-0.69,0.43-0.95c0.29-0.26,0.69-0.41,1.21-0.46l0.57,0.35
				c-0.4,0.04-0.68,0.13-0.84,0.27c-0.17,0.15-0.25,0.31-0.25,0.49c0,0.22,0.08,0.38,0.24,0.48c0.16,0.1,0.39,0.16,0.68,0.16H194.51
				z M193.26,58.96c0.57,0,1.07,0.09,1.49,0.27c0.42,0.18,0.75,0.44,0.98,0.77c0.23,0.33,0.34,0.71,0.34,1.16
				c0,0.44-0.11,0.83-0.34,1.16c-0.23,0.33-0.55,0.58-0.98,0.77c-0.42,0.18-0.92,0.27-1.49,0.27c-0.9,0-1.59-0.2-2.07-0.6
				c-0.48-0.4-0.72-0.93-0.72-1.59c0-0.44,0.11-0.83,0.34-1.16c0.23-0.33,0.56-0.58,0.98-0.77
				C192.22,59.05,192.71,58.96,193.26,58.96z M193.31,67.34c0.48,0,0.87-0.04,1.18-0.14c0.31-0.09,0.54-0.21,0.69-0.35
				c0.15-0.14,0.23-0.3,0.23-0.47c0-0.2-0.08-0.36-0.24-0.48c-0.16-0.12-0.45-0.18-0.86-0.18h-2.09c-0.24,0-0.45,0.06-0.61,0.19
				c-0.17,0.13-0.25,0.3-0.25,0.51c0,0.29,0.17,0.51,0.52,0.68C192.22,67.26,192.7,67.34,193.31,67.34z M193.26,59.94
				c-0.4,0-0.73,0.11-0.99,0.33c-0.26,0.22-0.4,0.52-0.4,0.89s0.13,0.67,0.4,0.9c0.26,0.23,0.6,0.34,0.99,0.34
				c0.41,0,0.74-0.11,1.01-0.34c0.26-0.22,0.4-0.52,0.4-0.9s-0.13-0.67-0.4-0.89C194.01,60.05,193.67,59.94,193.26,59.94z
				 M196.56,57.72l0.22,1.08c-0.31-0.01-0.57,0.02-0.79,0.1c-0.21,0.07-0.37,0.19-0.48,0.35c-0.11,0.16-0.16,0.36-0.15,0.59
				l-0.69-0.27c-0.01-0.27,0.03-0.52,0.12-0.75c0.09-0.23,0.21-0.43,0.38-0.59c0.17-0.17,0.37-0.29,0.6-0.38
				C196.02,57.76,196.28,57.72,196.56,57.72z"/>
			<path d="M206.22,59.09v1.09h-4.88v-1.09H206.22z M203.99,57.18v6.46c0,0.32,0.08,0.55,0.25,0.7s0.4,0.22,0.68,0.22
				c0.23,0,0.44-0.04,0.61-0.11c0.17-0.07,0.33-0.17,0.48-0.3l0.31,1.01c-0.2,0.17-0.44,0.31-0.74,0.41
				c-0.29,0.1-0.61,0.15-0.97,0.15c-0.37,0-0.71-0.06-1.03-0.18c-0.31-0.12-0.55-0.32-0.73-0.59c-0.17-0.27-0.26-0.63-0.27-1.07
				v-6.3L203.99,57.18z"/>
			<path d="M207.6,65.59v-9.42h1.39v3.96c0.22-0.41,0.51-0.7,0.88-0.89c0.37-0.19,0.78-0.28,1.23-0.28c0.46,0,0.87,0.09,1.24,0.27
				s0.66,0.44,0.88,0.8c0.22,0.36,0.32,0.81,0.32,1.35v4.21h-1.39v-3.77c0-0.64-0.13-1.09-0.4-1.34c-0.26-0.25-0.6-0.38-0.99-0.38
				c-0.28,0-0.55,0.07-0.83,0.2c-0.27,0.13-0.5,0.35-0.68,0.65c-0.18,0.3-0.27,0.7-0.27,1.2v3.43H207.6z"/>
			<path d="M216.79,65.31c-0.49-0.27-0.88-0.66-1.15-1.17c-0.27-0.51-0.41-1.11-0.41-1.8s0.14-1.29,0.41-1.8
				c0.27-0.51,0.65-0.9,1.13-1.17c0.48-0.27,1.03-0.41,1.66-0.41c0.62,0,1.15,0.13,1.59,0.38s0.79,0.61,1.03,1.07
				s0.36,0.97,0.36,1.54c0,0.16,0,0.3-0.01,0.44c-0.01,0.14-0.02,0.26-0.04,0.36h-5.23v-1.07h4.62l-0.7,0.47
				c0.05-0.66-0.07-1.17-0.36-1.54c-0.29-0.37-0.72-0.55-1.27-0.55c-0.38,0-0.71,0.09-0.98,0.26s-0.48,0.43-0.63,0.78
				s-0.22,0.76-0.22,1.25s0.08,0.9,0.23,1.23c0.16,0.34,0.38,0.59,0.66,0.77c0.29,0.17,0.62,0.26,1.01,0.26
				c0.42,0,0.77-0.08,1.04-0.24c0.27-0.16,0.49-0.39,0.65-0.7l1.11,0.52c-0.23,0.48-0.59,0.85-1.08,1.12s-1.05,0.4-1.69,0.4
				C217.86,65.72,217.29,65.58,216.79,65.31z"/>
			<path d="M156.68,74.69v1.09H152v-1.09H156.68z M155.49,71.67c0.27,0,0.51,0.03,0.73,0.08s0.39,0.13,0.5,0.23l-0.26,1
				c-0.09-0.06-0.2-0.11-0.32-0.14c-0.12-0.03-0.26-0.04-0.42-0.04c-0.36,0-0.64,0.08-0.84,0.25c-0.2,0.17-0.31,0.43-0.31,0.81v0.95
				l0.04,0.35v6.03h-1.39v-7.44c0-0.33,0.05-0.62,0.15-0.88s0.25-0.48,0.45-0.66s0.44-0.31,0.72-0.4
				C154.82,71.72,155.14,71.67,155.49,71.67z M158.63,73.6c-0.3,0-0.54-0.08-0.7-0.23c-0.16-0.15-0.24-0.37-0.24-0.64
				s0.08-0.49,0.24-0.64c0.16-0.15,0.39-0.22,0.7-0.22c0.29,0,0.52,0.07,0.68,0.22c0.16,0.15,0.24,0.36,0.24,0.64
				s-0.08,0.49-0.24,0.64C159.15,73.52,158.93,73.6,158.63,73.6z M159.32,74.69v6.5h-1.39v-6.5H159.32z"/>
			<path d="M161.48,81.19v-6.5h1.18l0.13,1.17c0.17-0.42,0.43-0.75,0.77-0.97c0.34-0.22,0.77-0.33,1.27-0.33
				c0.13,0,0.26,0.01,0.39,0.03s0.24,0.05,0.33,0.1l-0.2,1.22c-0.1-0.03-0.2-0.06-0.32-0.08s-0.28-0.03-0.47-0.03
				c-0.27,0-0.53,0.07-0.79,0.21c-0.26,0.14-0.47,0.36-0.64,0.64s-0.25,0.65-0.25,1.09v3.45H161.48z"/>
			<path d="M167.55,80.94c-0.54-0.25-0.96-0.61-1.27-1.06l0.96-0.83c0.2,0.37,0.48,0.66,0.84,0.87c0.36,0.2,0.79,0.3,1.27,0.3
				c0.4,0,0.71-0.07,0.95-0.21c0.23-0.14,0.35-0.34,0.35-0.58c0-0.18-0.06-0.33-0.18-0.46c-0.12-0.12-0.32-0.21-0.6-0.27l-1.36-0.29
				c-0.68-0.14-1.17-0.36-1.47-0.66c-0.3-0.3-0.46-0.7-0.46-1.18c0-0.36,0.11-0.7,0.33-1c0.22-0.3,0.53-0.55,0.93-0.73
				c0.4-0.18,0.88-0.27,1.42-0.27c0.64,0,1.19,0.11,1.66,0.34c0.46,0.23,0.82,0.56,1.06,0.98l-0.96,0.81
				c-0.17-0.34-0.4-0.59-0.71-0.77c-0.31-0.17-0.65-0.26-1.01-0.26c-0.28,0-0.52,0.04-0.71,0.1s-0.35,0.17-0.46,0.29
				c-0.1,0.13-0.16,0.27-0.16,0.42c0,0.18,0.07,0.34,0.21,0.46c0.14,0.13,0.37,0.22,0.69,0.29l1.48,0.31c0.6,0.12,1.03,0.32,1.3,0.6
				c0.27,0.28,0.4,0.64,0.4,1.07c0,0.63-0.24,1.14-0.73,1.52c-0.49,0.38-1.15,0.57-1.98,0.57
				C168.68,81.32,168.09,81.19,167.55,80.94z"/>
			<path d="M177.87,74.69v1.09H173v-1.09H177.87z M175.63,72.78v6.46c0,0.32,0.08,0.55,0.25,0.7s0.4,0.22,0.68,0.22
				c0.23,0,0.44-0.04,0.61-0.11c0.17-0.07,0.33-0.18,0.48-0.31l0.31,1.01c-0.2,0.17-0.44,0.31-0.74,0.41
				c-0.29,0.1-0.61,0.15-0.97,0.15c-0.37,0-0.71-0.06-1.03-0.18c-0.31-0.12-0.55-0.32-0.73-0.59c-0.17-0.27-0.26-0.63-0.27-1.07
				v-6.31L175.63,72.78z"/>
			<path d="M184.16,80.94c-0.54-0.25-0.96-0.61-1.27-1.06l0.96-0.83c0.2,0.37,0.48,0.66,0.84,0.87c0.36,0.2,0.79,0.3,1.27,0.3
				c0.4,0,0.71-0.07,0.95-0.21c0.23-0.14,0.35-0.34,0.35-0.58c0-0.18-0.06-0.33-0.18-0.46c-0.12-0.12-0.32-0.21-0.6-0.27l-1.36-0.29
				c-0.68-0.14-1.17-0.36-1.47-0.66c-0.3-0.3-0.46-0.7-0.46-1.18c0-0.36,0.11-0.7,0.33-1c0.22-0.3,0.53-0.55,0.93-0.73
				c0.4-0.18,0.88-0.27,1.42-0.27c0.64,0,1.19,0.11,1.66,0.34c0.46,0.23,0.82,0.56,1.06,0.98l-0.96,0.81
				c-0.17-0.34-0.4-0.59-0.71-0.77c-0.31-0.17-0.65-0.26-1.01-0.26c-0.28,0-0.52,0.04-0.71,0.1s-0.35,0.17-0.46,0.29
				c-0.1,0.13-0.16,0.27-0.16,0.42c0,0.18,0.07,0.34,0.21,0.46c0.14,0.13,0.37,0.22,0.69,0.29l1.48,0.31c0.6,0.12,1.03,0.32,1.3,0.6
				c0.27,0.28,0.4,0.64,0.4,1.07c0,0.63-0.24,1.14-0.73,1.52c-0.49,0.38-1.15,0.57-1.98,0.57C185.29,81.32,184.7,81.19,184.16,80.94
				z"/>
			<path d="M191.49,80.91c-0.49-0.27-0.88-0.66-1.15-1.17c-0.27-0.51-0.41-1.11-0.41-1.8s0.14-1.29,0.41-1.8
				c0.27-0.51,0.65-0.9,1.13-1.17c0.48-0.27,1.03-0.41,1.66-0.41c0.62,0,1.15,0.13,1.59,0.38c0.45,0.26,0.79,0.61,1.03,1.07
				s0.36,0.97,0.36,1.54c0,0.16,0,0.3-0.01,0.44s-0.02,0.26-0.04,0.36h-5.23v-1.07h4.62l-0.7,0.47c0.05-0.66-0.07-1.17-0.36-1.54
				c-0.29-0.37-0.72-0.55-1.27-0.55c-0.38,0-0.71,0.09-0.98,0.26c-0.27,0.17-0.48,0.43-0.63,0.78s-0.22,0.76-0.22,1.25
				s0.08,0.9,0.23,1.24c0.16,0.34,0.38,0.59,0.66,0.77c0.29,0.17,0.62,0.26,1.01,0.26c0.42,0,0.77-0.08,1.04-0.24
				s0.49-0.39,0.65-0.7l1.11,0.52c-0.23,0.48-0.59,0.85-1.08,1.12s-1.05,0.4-1.69,0.4C192.56,81.32,191.99,81.18,191.49,80.91z"/>
			<path d="M198.55,80.94c-0.54-0.25-0.96-0.61-1.27-1.06l0.96-0.83c0.2,0.37,0.48,0.66,0.84,0.87c0.36,0.2,0.79,0.3,1.27,0.3
				c0.4,0,0.71-0.07,0.95-0.21c0.23-0.14,0.35-0.34,0.35-0.58c0-0.18-0.06-0.33-0.18-0.46c-0.12-0.12-0.32-0.21-0.6-0.27l-1.36-0.29
				c-0.68-0.14-1.17-0.36-1.47-0.66c-0.3-0.3-0.46-0.7-0.46-1.18c0-0.36,0.11-0.7,0.33-1c0.22-0.3,0.53-0.55,0.93-0.73
				c0.4-0.18,0.88-0.27,1.42-0.27c0.64,0,1.19,0.11,1.66,0.34c0.46,0.23,0.82,0.56,1.06,0.98l-0.96,0.81
				c-0.17-0.34-0.4-0.59-0.71-0.77c-0.31-0.17-0.65-0.26-1.01-0.26c-0.28,0-0.52,0.04-0.71,0.1s-0.35,0.17-0.46,0.29
				c-0.1,0.13-0.16,0.27-0.16,0.42c0,0.18,0.07,0.34,0.21,0.46c0.14,0.13,0.37,0.22,0.69,0.29l1.48,0.31c0.6,0.12,1.03,0.32,1.3,0.6
				c0.27,0.28,0.4,0.64,0.4,1.07c0,0.63-0.24,1.14-0.73,1.52c-0.49,0.38-1.15,0.57-1.98,0.57
				C199.68,81.32,199.09,81.19,198.55,80.94z"/>
			<path d="M205.43,80.94c-0.54-0.25-0.96-0.61-1.27-1.06l0.96-0.83c0.2,0.37,0.48,0.66,0.84,0.87c0.36,0.2,0.79,0.3,1.27,0.3
				c0.4,0,0.71-0.07,0.95-0.21c0.23-0.14,0.35-0.34,0.35-0.58c0-0.18-0.06-0.33-0.18-0.46c-0.12-0.12-0.32-0.21-0.6-0.27l-1.36-0.29
				c-0.68-0.14-1.17-0.36-1.47-0.66c-0.3-0.3-0.46-0.7-0.46-1.18c0-0.36,0.11-0.7,0.33-1c0.22-0.3,0.53-0.55,0.93-0.73
				c0.4-0.18,0.88-0.27,1.42-0.27c0.64,0,1.19,0.11,1.66,0.34c0.46,0.23,0.82,0.56,1.06,0.98l-0.96,0.81
				c-0.17-0.34-0.4-0.59-0.71-0.77c-0.31-0.17-0.65-0.26-1.01-0.26c-0.28,0-0.52,0.04-0.71,0.1s-0.35,0.17-0.46,0.29
				c-0.1,0.13-0.16,0.27-0.16,0.42c0,0.18,0.07,0.34,0.21,0.46c0.14,0.13,0.37,0.22,0.69,0.29l1.48,0.31c0.6,0.12,1.03,0.32,1.3,0.6
				c0.27,0.28,0.4,0.64,0.4,1.07c0,0.63-0.24,1.14-0.73,1.52c-0.49,0.38-1.15,0.57-1.98,0.57
				C206.56,81.32,205.97,81.19,205.43,80.94z"/>
			<path d="M212.32,73.6c-0.3,0-0.54-0.08-0.7-0.23c-0.16-0.15-0.24-0.37-0.24-0.64s0.08-0.49,0.24-0.64
				c0.16-0.15,0.39-0.22,0.7-0.22c0.29,0,0.52,0.07,0.68,0.22c0.16,0.15,0.24,0.36,0.24,0.64s-0.08,0.49-0.24,0.64
				C212.84,73.52,212.61,73.6,212.32,73.6z M213.01,74.69v6.5h-1.39v-6.5H213.01z"/>
			<path d="M218,74.56c0.63,0,1.19,0.13,1.68,0.4s0.86,0.66,1.14,1.16c0.27,0.51,0.41,1.11,0.41,1.81s-0.14,1.31-0.41,1.81
				c-0.27,0.51-0.65,0.89-1.14,1.16s-1.04,0.4-1.68,0.4c-0.63,0-1.19-0.13-1.68-0.4s-0.87-0.66-1.14-1.16s-0.42-1.11-0.42-1.81
				s0.14-1.31,0.42-1.81s0.66-0.9,1.14-1.16S217.37,74.56,218,74.56z M218,75.65c-0.39,0-0.72,0.09-1,0.27
				c-0.27,0.18-0.48,0.44-0.63,0.77c-0.15,0.34-0.22,0.75-0.22,1.25c0,0.49,0.07,0.9,0.22,1.24c0.15,0.34,0.36,0.6,0.63,0.78
				c0.27,0.18,0.6,0.27,1,0.27c0.39,0,0.72-0.09,0.99-0.27s0.48-0.44,0.62-0.78c0.15-0.34,0.22-0.76,0.22-1.24
				c0-0.49-0.07-0.91-0.22-1.25s-0.36-0.6-0.62-0.77S218.39,75.65,218,75.65z"/>
			<path d="M222.98,81.19v-6.5h1.24l0.09,1.69l-0.18-0.18c0.12-0.37,0.3-0.68,0.53-0.93c0.23-0.25,0.5-0.43,0.82-0.54
				c0.32-0.11,0.65-0.17,1.01-0.17c0.46,0,0.87,0.09,1.24,0.27s0.66,0.44,0.88,0.8c0.22,0.36,0.32,0.81,0.32,1.35v4.21h-1.39v-3.78
				c0-0.64-0.13-1.09-0.4-1.33c-0.26-0.25-0.6-0.37-0.99-0.37c-0.29,0-0.56,0.07-0.83,0.2c-0.27,0.13-0.49,0.35-0.67,0.64
				c-0.18,0.29-0.27,0.69-0.27,1.18v3.46H222.98z"/>
			<path d="M231.73,79.44c0.29,0,0.53,0.08,0.71,0.25s0.27,0.4,0.27,0.68s-0.09,0.52-0.27,0.69c-0.18,0.17-0.41,0.26-0.71,0.26
				c-0.3,0-0.54-0.09-0.72-0.26c-0.18-0.17-0.27-0.4-0.27-0.69s0.09-0.51,0.27-0.68S231.43,79.44,231.73,79.44z"/>
		</g>
	</g>
	<path class="st16" d="M424.87,21.44c-32.91,0-52.76,15.43-72.6,19.82c-23.59,5.22-44-4.83-64.91,4.66
		c-20.65,9.37-24.92,49.98-47.08,60.66c-24.14,11.64-64.6,13.6-83.21,33.76c-31.21,33.81-16.03,59.6-51.92,88.44
		c-23.82,19.14-55.72,30.44-83.27,44.18"/>
	<polyline class="st17" points="21.25,11.93 21.25,273.64 419.22,273.64 	"/>
</g>
<g id="Layer_2">
</g>
</svg>
